[Header]
FileType HTR
DataType HTRS
FileVersion 1
NumSegments 22
NumFrames 8
DataFrameRate 24
EulerRotationOrder ZYX
CalibrationUnits mm
RotationUnits Degrees
GlobalAxisofGravity Y
BoneLengthAxis Y
ScaleFactor 1.0
[SegmentNames&Hierarchy]
reference	GLOBAL
Hips	reference
Spine	Hips
Spine1	Spine
Neck	Spine1
Head	Neck
LeftShoulder	Spine1
LeftArm	LeftShoulder
LeftForeArm	LeftArm
LeftHand	LeftForeArm
RightShoulder	Spine1
RightArm	RightShoulder
RightForeArm	RightArm
RightHand	RightForeArm
LeftUpLeg	Hips
LeftLeg	LeftUpLeg
LeftFoot	LeftLeg
LeftToeBase	LeftFoot
RightUpLeg	Hips
RightLeg	RightUpLeg
RightFoot	RightLeg
RightToeBase	RightFoot
[BasePosition]
reference	0	0	0	0	0	0	1
Hips	0	0	0	0	0	0	1
Spine	0	0	0	-0	-90	0	1
Spine1	0	0	0	0	0	0	1
Neck	0	0	0	82.64767223	-82.64767223	-90	1
Head	0	0	0	-0	-90	0	1
LeftShoulder	0	0	0	0	0	0	1
LeftArm	0	0	0	0	0	0	1
LeftForeArm	0	0	0	0	0	0	1
LeftHand	0	0	0	0	0	0	1
RightShoulder	0	0	0	0	-0	180	1
RightArm	0	0	0	0	-0	180	1
RightForeArm	0	0	0	0	-0	180	1
RightHand	0	0	0	0	-0	180	1
LeftUpLeg	0	0	0	-0	90	0	1
LeftLeg	0	0	0	-0	90	0	1
LeftFoot	0	0	0	-23.42853957	23.42853957	-90	1
LeftToeBase	0	0	0	0	-0	-90	1
RightUpLeg	0	0	0	-0	90	0	1
RightLeg	0	0	0	-0	90	0	1
RightFoot	0	0	0	-23.42853957	23.42853957	-90	1
RightToeBase	0	0	0	0	-0	-90	1
[reference]
1	0	0	0	0	-0	0	1.0
2	0	0	0	0	-0	0	1.0
3	0	0	0	0	-0	0	1.0
4	0	0	0	0	-0	0	1.0
5	0	0	0	0	-0	0	1.0
6	0	0	0	0	-0	0	1.0
7	0	0	0	0	-0	0	1.0
8	0	0	0	0	-0	0	1.0
[Hips]
1	5.112739563	0.1061000004	8.00755024	2.433078766	0.9810419679	-123.5346909	1.0
2	5.112739563	0.1061000004	8.00755024	1.994484663	1.50460124	-123.9286118	1.0
3	5.112739563	0.1061000004	8.00755024	1.647554159	2.326032162	-125.8960419	1.0
4	5.112739563	0.1061000004	8.00755024	1.236898541	3.187214613	-127.5129166	1.0
5	5.112739563	0.1061000004	8.00755024	1.46809566	3.156366587	-127.9452362	1.0
6	5.112739563	0.1061000004	8.00755024	2.295443535	1.925755978	-127.539299	1.0
7	5.112739563	0.1061000004	8.00755024	2.535642147	1.569095492	-127.3714066	1.0
8	5.112739563	0.1061000004	8.00755024	3.195836306	1.430633545	-128.1806335	1.0
[Spine]
1	0	0	0.7457100153	69.12729645	83.23129272	74.01596069	1.0
2	0	0	0.7457100153	66.4484787	83.05905151	70.6209259	1.0
3	0	0	0.7457100153	62.4303894	82.23167419	66.10962677	1.0
4	0	0	0.7457100153	58.50078201	81.88185883	61.67824554	1.0
5	0	0	0.7457100153	57.66321945	82.36071777	60.92506409	1.0
6	0	0	0.7457100153	64.00523376	83.66439819	67.5925827	1.0
7	0	0	0.7457100153	67.26087952	83.76803589	70.73420715	1.0
8	0	0	0.7457100153	70.34326172	83.28781891	73.78739929	1.0
[Spine1]
1	0	0	2.140589952	8.358657837	0.3531949818	2.16900754	1.0
2	0	0	2.140589952	7.957460403	0.0952046141	2.162459612	1.0
3	0	0	2.140589952	7.857223034	-0.3742094934	2.305853367	1.0
4	0	0	2.140589952	8.252700806	-1.004477501	2.276373386	1.0
5	0	0	2.140589952	8.802755356	-1.18094492	2.101560593	1.0
6	0	0	2.140589952	9.592475891	-1.119831562	1.836816311	1.0
7	0	0	2.140589952	9.371571541	-0.9038537741	1.867560267	1.0
8	0	0	2.140589952	8.355794907	-0.5379892588	2.091379404	1.0
[Neck]
1	0	0	2.32246995	73.60671234	84.22068024	91.18696594	1.0
2	0	0	2.32246995	74.80505371	83.92749023	92.47929382	1.0
3	0	0	2.32246995	76.48013306	82.71160889	94.19363403	1.0
4	0	0	2.32246995	100.1360016	81.39723206	120.4244537	1.0
5	0	0	2.32246995	102.7679214	81.02954865	124.5811615	1.0
6	0	0	2.32246995	101.9629211	80.94316101	126.2520599	1.0
7	0	0	2.32246995	103.0430832	81.19242096	127.6893463	1.0
8	0	0	2.32246995	100.7815857	81.73540497	125.357254	1.0
[Head]
1	0	-0.1818799973	1.409579992	-11.18370056	98.50054932	-4.398208618	1.0
2	0	-0.1818799973	1.409579992	-11.14690781	98.72938538	-4.514144897	1.0
3	0	-0.1818799973	1.409579992	-10.64105606	99.91455078	-3.047141075	1.0
4	0	-0.1818799973	1.409579992	-26.07336426	92.68253326	-20.70030594	1.0
5	0	-0.1818799973	1.409579992	-39.22642517	91.45130157	-34.25300598	1.0
6	0	-0.1818799973	1.409579992	-67.04779053	90.93782806	-62.65219879	1.0
7	0	-0.1818799973	1.409579992	-119.7415924	90.60041809	-115.2048492	1.0
8	0	-0.1818799973	1.409579992	-224.5437317	90.18560791	-220.02565	1.0
[LeftShoulder]
1	0.3668199778	0.02662999928	1.946700096	-8.560932159	0.2060474008	-11.26671982	1.0
2	0.3668199778	0.02662999928	1.946700096	-8.248065948	0.04257270694	-11.15787697	1.0
3	0.3668199778	0.02662999928	1.946700096	-7.533159733	-0.01631635241	-10.63431835	1.0
4	0.3668199778	0.02662999928	1.946700096	-7.317975998	0.1052993163	-9.837389946	1.0
5	0.3668199778	0.02662999928	1.946700096	-7.842362404	0.2819332778	-9.443948746	1.0
6	0.3668199778	0.02662999928	1.946700096	-7.987259865	1.168951154	-10.05050182	1.0
7	0.3668199778	0.02662999928	1.946700096	-8.644052505	0.98242414	-10.33731842	1.0
8	0.3668199778	0.02662999928	1.946700096	-9.230389595	0.9919847846	-10.74232578	1.0
[LeftArm]
1	1.140689969	0	0	76.45024109	59.40242767	58.10958099	1.0
2	1.140689969	0	0	74.67709351	58.81990051	58.46898651	1.0
3	1.140689969	0	0	70.96520996	57.64685059	58.95225525	1.0
4	1.140689969	0	0	67.54986572	56.79871368	58.98791885	1.0
5	1.140689969	0	0	67.03271484	56.37160492	59.06241608	1.0
6	1.140689969	0	0	69.33226776	57.40332794	57.13893127	1.0
7	1.140689969	0	0	71.69001007	57.94908905	56.62713623	1.0
8	1.140689969	0	0	72.76864624	58.94586182	55.29709625	1.0
[LeftForeArm]
1	2.749800205	0	0	-8.860135078	6.087498188	-8.315457344	1.0
2	2.749800205	0	0	-8.390734673	6.570961952	-8.121643066	1.0
3	2.749800205	0	0	-8.161369324	7.171794891	-7.494536877	1.0
4	2.749800205	0	0	-8.573265076	7.61297226	-6.586277008	1.0
5	2.749800205	0	0	-9.248198509	7.303660393	-5.787519455	1.0
6	2.749800205	0	0	-11.12423515	5.392199516	-3.926140785	1.0
7	2.749800205	0	0	-11.38708115	4.975814819	-3.186077595	1.0
8	2.749800205	0	0	-10.5054512	4.766246319	-3.355822325	1.0
[LeftHand]
1	2.295179844	0	0	-8.470645905	2.812952995	-2.176149607	1.0
2	2.295179844	0	0	-7.988452435	3.1318748	-2.370723248	1.0
3	2.295179844	0	0	-7.79910183	4.304461479	-2.832326651	1.0
4	2.295179844	0	0	-8.248324394	4.114866734	-3.174569607	1.0
5	2.295179844	0	0	-8.956822395	3.15498209	-2.844325542	1.0
6	2.295179844	0	0	-10.96065712	1.486615658	-1.467108607	1.0
7	2.295179844	0	0	-11.24743176	-0.4430392981	-0.1232605577	1.0
8	2.295179844	0	0	-10.38898087	-1.970082164	1.283152103	1.0
[RightShoulder]
1	-0.3601199985	0.02662999928	1.946700096	-5.808871269	6.528646946	-174.6069794	1.0
2	-0.3601199985	0.02662999928	1.946700096	-5.706977367	6.585557938	-174.6556702	1.0
3	-0.3601199985	0.02662999928	1.946700096	-5.792122841	6.820126534	-174.7595367	1.0
4	-0.3601199985	0.02662999928	1.946700096	-6.076894283	6.912077904	-174.7375793	1.0
5	-0.3601199985	0.02662999928	1.946700096	-6.328066826	6.916676521	-174.5159302	1.0
6	-0.3601199985	0.02662999928	1.946700096	-6.410949707	6.559793472	-174.2577209	1.0
7	-0.3601199985	0.02662999928	1.946700096	-6.458715439	6.606536865	-174.3529663	1.0
8	-0.3601199985	0.02662999928	1.946700096	-6.230831146	6.454140663	-174.4324036	1.0
[RightArm]
1	-1.140689969	0	0	13.94837284	-79.39373016	-122.611969	1.0
2	-1.140689969	0	0	14.07118225	-78.90115356	-122.8497162	1.0
3	-1.140689969	0	0	13.02667522	-77.57581329	-122.1666107	1.0
4	-1.140689969	0	0	11.12257004	-76.20106506	-120.5922318	1.0
5	-1.140689969	0	0	8.465848923	-75.73014832	-118.049057	1.0
6	-1.140689969	0	0	2.716905355	-76.58360291	-114.2327957	1.0
7	-1.140689969	0	0	-0.7741557956	-78.22039795	-111.1004944	1.0
8	-1.140689969	0	0	-6.414672852	-80.83459473	-105.3321533	1.0
[RightForeArm]
1	-2.749800205	0	0	5.840591908	6.62858057	-145.1328735	1.0
2	-2.749800205	0	0	6.367812157	6.678483009	-143.4008026	1.0
3	-2.749800205	0	0	7.525269032	6.125144482	-139.798645	1.0
4	-2.749800205	0	0	8.511773109	5.328969955	-137.5657959	1.0
5	-2.749800205	0	0	8.68204689	5.168858051	-137.9584198	1.0
6	-2.749800205	0	0	7.834426403	5.749740601	-141.8787537	1.0
7	-2.749800205	0	0	6.108856201	7.047708035	-144.9271545	1.0
8	-2.749800205	0	0	3.565475464	8.440481186	-151.7459106	1.0
[RightHand]
1	-2.295179844	0	0	4.640865326	6.989295959	-165.6042938	1.0
2	-2.295179844	0	0	5.032923698	6.818714142	-165.3691101	1.0
3	-2.295179844	0	0	6.224236965	7.02487278	-164.8226776	1.0
4	-2.295179844	0	0	7.435642719	7.301012039	-164.5085449	1.0
5	-2.295179844	0	0	7.755177021	7.646852493	-164.2321014	1.0
6	-2.295179844	0	0	6.912789345	7.951745033	-164.7514496	1.0
7	-2.295179844	0	0	4.974323273	8.532758713	-165.3767853	1.0
8	-2.295179844	0	0	2.450644493	8.722833633	-166.8560333	1.0
[LeftUpLeg]
1	0.9094099998	0	0	-48.1105957	-93.19239807	24.75692749	1.0
2	0.9094099998	0	0	-54.76722336	-94.07229614	33.36068344	1.0
3	0.9094099998	0	0	-68.2618866	-95.88299561	50.05478668	1.0
4	0.9094099998	0	0	-66.06071472	-96.24362183	48.66004181	1.0
5	0.9094099998	0	0	-69.24485016	-94.83634949	50.42054749	1.0
6	0.9094099998	0	0	-96.72525024	-95.48187256	73.59593201	1.0
7	0.9094099998	0	0	-95.68128967	-97.50880432	70.97114563	1.0
8	0.9094099998	0	0	-93.34616852	-96.87631989	67.76576233	1.0
[LeftLeg]
1	0	0	-4.498080254	65.54277802	-74.72440338	-41.91041565	1.0
2	0	0	-4.498080254	62.62665939	-78.11091614	-45.32913208	1.0
3	0	0	-4.498080254	16.30323792	-85.67220306	-8.970337868	1.0
4	0	0	-4.498080254	6.082482338	-87.43039703	0.773034811	1.0
5	0	0	-4.498080254	61.09460449	-85.94317627	-50.60143661	1.0
6	0	0	-4.498080254	83.9401474	-76.14096069	-62.20401001	1.0
7	0	0	-4.498080254	76.99508667	-74.08067322	-50.36805725	1.0
8	0	0	-4.498080254	75.78656006	-71.42506409	-44.17916107	1.0
[LeftFoot]
1	0	0	-3.729400158	-55.2508812	-0.3551164865	105.8153381	1.0
2	0	0	-3.729400158	-51.99399567	-0.08150777221	100.7674408	1.0
3	0	0	-3.729400158	-46.22331238	-3.932845592	93.30602264	1.0
4	0	0	-3.729400158	-48.32305145	-13.52504349	96.43487549	1.0
5	0	0	-3.729400158	-53.12215042	-17.48909378	106.1974258	1.0
6	0	0	-3.729400158	-57.99134827	-10.65580463	115.0328903	1.0
7	0	0	-3.729400158	-58.24050903	-8.979343414	116.1523666	1.0
8	0	0	-3.729400158	-58.91766357	-5.98628664	117.9277878	1.0
[LeftToeBase]
1	0	-1.364109993	-0.5911099911	0	-1.999999995e-006	0	1.0
2	0	-1.364109993	-0.5911099911	0	-1.999999995e-006	0	1.0
3	0	-1.364109993	-0.5911099911	0	-1.999999995e-006	0	1.0
4	0	-1.364109993	-0.5911099911	0	-1.999999995e-006	0	1.0
5	0	-1.364109993	-0.5911099911	0	-1.999999995e-006	0	1.0
6	0	-1.364109993	-0.5911099911	0	-1.999999995e-006	0	1.0
7	0	-1.364109993	-0.5911099911	0	-1.999999995e-006	0	1.0
8	0	-1.364109993	-0.5911099911	0	-1.999999995e-006	0	1.0
[RightUpLeg]
1	-0.9094099998	0	0	-52.95999146	-98.57868195	62.10235596	1.0
2	-0.9094099998	0	0	-47.96064758	-98.65076447	58.13790131	1.0
3	-0.9094099998	0	0	-44.88978958	-98.78985596	56.05620575	1.0
4	-0.9094099998	0	0	-46.59605408	-99.59312439	58.65990067	1.0
5	-0.9094099998	0	0	-51.01487732	-99.7546463	63.31178284	1.0
6	-0.9094099998	0	0	-58.25927734	-99.81121063	70.37404633	1.0
7	-0.9094099998	0	0	-60.57275391	-100.4352264	72.99076843	1.0
8	-0.9094099998	0	0	-70.02941895	-101.7901764	81.99343109	1.0
[RightLeg]
1	0	0	-4.498080254	29.57633972	-93.13045502	-24.62095642	1.0
2	0	0	-4.498080254	21.16505432	-92.82357788	-16.53888321	1.0
3	0	0	-4.498080254	13.6863575	-92.53085327	-7.837309837	1.0
4	0	0	-4.498080254	36.76652527	-93.15316772	-29.12313461	1.0
5	0	0	-4.498080254	59.09534454	-95.2429657	-50.5874939	1.0
6	0	0	-4.498080254	62.83042145	-91.53986359	-52.54307175	1.0
7	0	0	-4.498080254	93.12136841	-86.99677277	-82.36666107	1.0
8	0	0	-4.498080254	53.67337799	-87.75068665	-39.98857117	1.0
[RightFoot]
1	0	0	-3.729400158	-56.8259201	-21.45023918	88.03887939	1.0
2	0	0	-3.729400158	-57.62771225	-21.27586365	88.54472351	1.0
3	0	0	-3.729400158	-61.30007172	-20.47185898	90.17355347	1.0
4	0	0	-3.729400158	-64.63764954	-20.20615768	91.00695801	1.0
5	0	0	-3.729400158	-65.22023773	-20.93814087	89.81479645	1.0
6	0	0	-3.729400158	-66.00443268	-20.7321701	95.14618683	1.0
7	0	0	-3.729400158	-66.09819031	-19.75941849	101.4741974	1.0
8	0	0	-3.729400158	-64.1360321	-20.15593529	106.5545654	1.0
[RightToeBase]
1	0	-1.364109993	-0.5911099911	0	0	3.99999999e-006	1.0
2	0	-1.364109993	-0.5911099911	0	0	3.99999999e-006	1.0
3	0	-1.364109993	-0.5911099911	0	0	3.99999999e-006	1.0
4	0	-1.364109993	-0.5911099911	0	0	3.99999999e-006	1.0
5	0	-1.364109993	-0.5911099911	0	0	3.99999999e-006	1.0
6	0	-1.364109993	-0.5911099911	0	0	3.99999999e-006	1.0
7	0	-1.364109993	-0.5911099911	0	0	3.99999999e-006	1.0
8	0	-1.364109993	-0.5911099911	0	0	3.99999999e-006	1.0
[EndOfFile]
